HIERARCHY
ROOT Hips
{
	OFFSET 0.000000 89.005402 0.000000
	CHANNELS 6 Xposition Yposition Zposition Xrotation Yrotation Zrotation
	JOINT Spine
	{
		OFFSET 0.116900 10.681000 0.373400
		CHANNELS 3 Xrotation Yrotation Zrotation
		JOINT Spine1
		{
			OFFSET 0.000000 13.840401 0.053500
			CHANNELS 3 Xrotation Yrotation Zrotation
			JOINT Spine2
			{
				OFFSET 0.000000 14.712700 -0.366200
				CHANNELS 3 Xrotation Yrotation Zrotation
				JOINT Neck
				{
					OFFSET 0.000000 35.415497 -3.314200
					CHANNELS 3 Xrotation Yrotation Zrotation
					JOINT Head
					{
						OFFSET 0.000000 16.899200 1.218300
						CHANNELS 3 Xrotation Yrotation Zrotation
						JOINT HeadTop_End
						{
							OFFSET 0.000000 22.206207 2.192500
							CHANNELS 3 Xrotation Yrotation Zrotation
							End Site
							{
								OFFSET 0.000000 22.314178 0.000000
							}
						}
					}
				}
				JOINT LeftShoulder
				{
					OFFSET 12.896400 26.716293 -4.548400
					CHANNELS 3 Xrotation Yrotation Zrotation
					JOINT LeftArm
					{
						OFFSET 19.027000 -4.857010 -1.718400
						CHANNELS 3 Xrotation Yrotation Zrotation
						JOINT LeftForeArm
						{
							OFFSET 24.179897 0.000000 0.000000
							CHANNELS 3 Xrotation Yrotation Zrotation
							JOINT LeftHand
							{
								OFFSET 27.156403 0.000000 0.000000
								CHANNELS 3 Xrotation Yrotation Zrotation
								JOINT LeftHandIndex1
								{
									OFFSET 16.441200 0.000000 0.000000
									CHANNELS 3 Xrotation Yrotation Zrotation
									JOINT LeftHandIndex2
									{
										OFFSET 4.821899 0.000000 0.000000
										CHANNELS 3 Xrotation Yrotation Zrotation
										JOINT LeftHandIndex3
										{
											OFFSET 6.386497 0.000000 0.000000
											CHANNELS 3 Xrotation Yrotation Zrotation
											JOINT LeftHandIndex4
											{
												OFFSET 5.188988 0.000000 0.000000
												CHANNELS 3 Xrotation Yrotation Zrotation
												End Site
												{
													OFFSET -0.178703 5.185913 0.000177
												}
											}
										}
									}
								}
								JOINT LeftHandThumb1
								{
									OFFSET 6.534897 -5.032593 5.900300
									CHANNELS 3 Xrotation Yrotation Zrotation
									JOINT LeftHandThumb2
									{
										OFFSET 3.818176 -2.204422 2.204423
										CHANNELS 3 Xrotation Yrotation Zrotation
										JOINT LeftHandThumb3
										{
											OFFSET 3.252098 -1.877594 1.877601
											CHANNELS 3 Xrotation Yrotation Zrotation
											JOINT LeftHandThumb4
											{
												OFFSET 5.251778 -3.032120 3.032117
												CHANNELS 3 Xrotation Yrotation Zrotation
												End Site
												{
													OFFSET 0.000023 6.780014 0.000000
												}
											}
										}
									}
								}
							}
						}
					}
				}
				JOINT RightShoulder
				{
					OFFSET -12.896300 26.716293 -4.548400
					CHANNELS 3 Xrotation Yrotation Zrotation
					JOINT RightArm
					{
						OFFSET -19.027000 -4.857010 -1.718400
						CHANNELS 3 Xrotation Yrotation Zrotation
						JOINT RightForeArm
						{
							OFFSET -24.179897 0.000000 0.000000
							CHANNELS 3 Xrotation Yrotation Zrotation
							JOINT RightHand
							{
								OFFSET -27.156403 0.000000 0.000000
								CHANNELS 3 Xrotation Yrotation Zrotation
								JOINT RightHandThumb1
								{
									OFFSET -6.591202 -4.852203 5.988100
									CHANNELS 3 Xrotation Yrotation Zrotation
									JOINT RightHandThumb2
									{
										OFFSET -3.818176 -2.204422 2.204423
										CHANNELS 3 Xrotation Yrotation Zrotation
										JOINT RightHandThumb3
										{
											OFFSET -3.252098 -1.877594 1.877601
											CHANNELS 3 Xrotation Yrotation Zrotation
											JOINT RightHandThumb4
											{
												OFFSET -5.251778 -3.032120 3.032117
												CHANNELS 3 Xrotation Yrotation Zrotation
												End Site
												{
													OFFSET -0.000023 6.780014 0.000000
												}
											}
										}
									}
								}
								JOINT RightHandIndex1
								{
									OFFSET -16.029404 0.000000 0.000000
									CHANNELS 3 Xrotation Yrotation Zrotation
									JOINT RightHandIndex2
									{
										OFFSET -5.213303 0.000000 0.000000
										CHANNELS 3 Xrotation Yrotation Zrotation
										JOINT RightHandIndex3
										{
											OFFSET -6.386528 0.000000 0.000000
											CHANNELS 3 Xrotation Yrotation Zrotation
											JOINT RightHandIndex4
											{
												OFFSET -5.189026 0.000000 0.000000
												CHANNELS 3 Xrotation Yrotation Zrotation
												End Site
												{
													OFFSET 0.236702 5.183624 0.001972
												}
											}
										}
									}
								}
							}
						}
					}
				}
			}
		}
	}
	JOINT LeftUpLeg
	{
		OFFSET 14.073000 -7.904099 -1.463000
		CHANNELS 3 Xrotation Yrotation Zrotation
		JOINT LeftLeg
		{
			OFFSET -0.109806 -34.073280 4.093200
			CHANNELS 3 Xrotation Yrotation Zrotation
			JOINT LeftFoot
			{
				OFFSET 0.109806 -29.899420 -6.319000
				CHANNELS 3 Xrotation Yrotation Zrotation
				JOINT LeftToeBase
				{
					OFFSET 1.551100 -14.988700 20.535801
					CHANNELS 3 Xrotation Yrotation Zrotation
					JOINT LeftToe_End
					{
						OFFSET 0.221200 0.570800 13.248301
						CHANNELS 3 Xrotation Yrotation Zrotation
						End Site
						{
							OFFSET 0.000000 13.262435 0.000000
						}
					}
				}
			}
		}
	}
	JOINT RightUpLeg
	{
		OFFSET -13.839300 -7.904099 -1.463000
		CHANNELS 3 Xrotation Yrotation Zrotation
		JOINT RightLeg
		{
			OFFSET 0.109694 -34.073219 4.093300
			CHANNELS 3 Xrotation Yrotation Zrotation
			JOINT RightFoot
			{
				OFFSET -0.109694 -29.899384 -6.319200
				CHANNELS 3 Xrotation Yrotation Zrotation
				JOINT RightToeBase
				{
					OFFSET -1.551100 -14.988700 20.535801
					CHANNELS 3 Xrotation Yrotation Zrotation
					JOINT RightToe_End
					{
						OFFSET -0.221200 0.570900 13.248299
						CHANNELS 3 Xrotation Yrotation Zrotation
						End Site
						{
							OFFSET 0.000000 13.262440 0.000000
						}
					}
				}
			}
		}
	}
}
MOTION
Frames: 8
Frame Time: 0.033333
-0.128549 35.516899 -0.726074 72.664894 -1.758608 -1.179112 0.752101 -0.172042 0.401211 1.989907 -0.361037 0.703952 1.989557 -0.369635 0.705793 -9.204250 -0.704416 3.164578 0.129153 2.292099 -4.360972 0.000001 0.000000 0.000000 1.107189 -1.022676 0.366517 -53.198134 -52.390174 -60.733742 0.000007 -9.465362 -0.000007 10.586333 -19.105149 86.700379 -5.631840 -12.014753 -21.413729 0.096101 1.057925 -10.381338 0.088572 -1.015958 9.965369 -0.000002 0.000001 -0.000002 -1.184896 3.317059 10.820551 10.126212 -4.458104 7.651885 1.077484 -7.608441 23.794142 -0.000001 0.000001 0.000003 1.721909 3.722438 14.170257 -57.852966 62.510410 58.216339 0.000006 10.622208 -0.000012 22.462834 6.417977 -82.516752 -0.201458 3.035649 -7.196446 8.074872 6.487020 -14.042696 5.826163 15.094081 -37.811449 -0.000000 0.000002 0.000003 -3.832606 7.761187 22.844329 0.000001 0.000004 -0.000001 0.116177 -1.034819 12.810757 -0.000001 -0.000001 0.000001 10.497656 11.603504 1.716853 -2.504487 8.315150 2.123920 -40.586084 5.651495 -9.110123 -30.606723 1.244014 -9.401615 -0.000001 0.000000 0.000000 3.579353 -7.769485 -2.813895 9.889612 -0.053741 -1.521622 -37.478109 -5.869302 10.002243 -42.436003 -1.882194 8.164299 -0.000000 -0.000001 -0.000000 
-0.154957 35.495342 -0.753395 72.687194 -1.770123 -1.167707 0.739740 -0.172185 0.402737 1.964897 -0.361037 0.703952 1.964559 -0.369635 0.705793 -9.238996 -0.688522 3.162263 0.081811 2.371656 -4.421554 0.000002 -0.000000 -0.000000 1.098661 -1.023015 0.313277 -52.741232 -52.390648 -60.328889 0.000008 -9.845361 -0.000001 10.461451 -18.944552 86.618690 -5.631836 -12.014749 -21.413729 0.096102 1.057925 -10.381339 0.088572 -1.015957 9.965366 -0.000001 0.000000 -0.000001 -1.184896 3.317065 10.820551 10.126212 -4.458102 7.651883 1.077485 -7.608441 23.794152 -0.000001 -0.000000 0.000003 1.725742 3.636538 14.173041 -58.049395 62.534992 58.469848 -0.000006 10.652636 0.000006 22.516608 6.361373 -82.478783 -0.201457 3.035651 -7.196448 8.074872 6.487020 -14.042696 5.826164 15.094081 -37.811449 -0.000000 0.000001 0.000001 -3.832605 7.761187 22.844331 0.000001 0.000003 0.000001 0.116069 -1.034345 12.804781 0.000000 -0.000001 -0.000001 10.599415 11.585937 1.663138 -2.722540 8.486908 2.135932 -40.616236 5.644136 -9.092712 -30.502839 1.227790 -9.333431 -0.000000 -0.000000 -0.000000 3.586016 -7.770730 -2.801874 9.853086 -0.008651 -1.514669 -37.576518 -5.855976 9.957894 -42.372984 -1.867937 8.122927 -0.000001 0.000000 -0.000000 
-0.185881 35.467514 -0.767159 72.700096 -1.762390 -1.164288 0.733183 -0.172266 0.403682 1.949701 -0.360597 0.708587 1.949281 -0.369635 0.705793 -9.265123 -0.658220 3.131122 -0.048471 2.463798 -4.466536 -0.000001 -0.000000 -0.000000 1.093251 -1.031515 0.288092 -52.205820 -52.384255 -59.868234 0.000002 -10.322374 -0.000022 10.298657 -18.747776 86.548537 -5.631840 -12.014753 -21.413729 0.096100 1.057925 -10.381339 0.088571 -1.015958 9.965368 0.000000 -0.000000 -0.000000 -1.184899 3.317062 10.820550 10.126211 -4.458103 7.651884 1.077485 -7.608441 23.794151 0.000001 0.000001 0.000001 1.735136 3.397911 14.141522 -58.762201 62.693179 59.273420 -0.000004 10.359458 0.000006 22.563865 6.452764 -82.526662 -0.201457 3.035649 -7.196448 8.074872 6.487020 -14.042701 5.826162 15.094081 -37.811449 0.000001 0.000001 0.000000 -3.832606 7.761187 22.844328 -0.000001 0.000004 -0.000000 0.116003 -1.034067 12.801267 0.000001 -0.000002 0.000003 10.623180 11.595102 1.686833 -2.776995 8.447001 2.136349 -40.646247 5.650399 -9.106697 -30.469884 1.223475 -9.319481 0.000000 0.000001 0.000000 3.624175 -7.759578 -2.769899 9.809645 -0.016865 -1.509939 -37.661038 -5.840246 9.905272 -42.307688 -1.860649 8.111584 -0.000001 0.000001 -0.000000 
-0.216477 35.443146 -0.767357 72.686074 -1.785002 -1.158441 0.729800 -0.172301 0.397973 1.942073 -0.355354 0.694987 1.941692 -0.363490 0.692180 -9.264899 -0.637529 3.114124 -0.055356 2.531539 -4.446146 0.000000 -0.000000 -0.000000 1.095155 -1.049720 0.306408 -51.716809 -52.395604 -59.447658 0.000004 -10.690248 -0.000003 10.127490 -18.594869 86.505118 -5.631838 -12.014752 -21.413729 0.096101 1.057925 -10.381337 0.088576 -1.015958 9.965368 -0.000001 -0.000000 0.000001 -1.184895 3.317061 10.820552 10.126212 -4.458100 7.651886 1.077485 -7.608441 23.794147 -0.000000 0.000000 0.000001 1.741294 3.202031 14.073258 -59.699753 62.901760 60.302142 -0.000006 9.748436 -0.000009 22.558103 6.699809 -82.666872 -0.201458 3.035650 -7.196447 8.074872 6.487022 -14.042698 5.826163 15.094081 -37.811456 0.000001 -0.000002 -0.000001 -3.832605 7.761187 22.844328 0.000002 0.000002 -0.000000 0.115942 -1.033779 12.797913 0.000001 -0.000001 0.000001 10.616143 11.651987 1.770916 -2.712352 8.205502 2.111943 -40.652842 5.661415 -9.139134 -30.504438 1.234560 -9.374554 -0.000000 -0.000001 -0.000000 3.685342 -7.744481 -2.734960 9.774309 -0.066870 -1.510394 -37.720498 -5.832542 9.865851 -42.196314 -1.858952 8.168906 -0.000000 0.000001 -0.000000 
-0.242369 35.427147 -0.755768 72.665447 -1.815749 -1.150015 0.727362 -0.172193 0.378163 1.938992 -0.331158 0.664025 1.938636 -0.338938 0.661428 -9.339280 -0.654176 3.127626 0.043392 2.476875 -4.344301 -0.000000 0.000000 -0.000000 1.098035 -1.081060 0.277207 -51.405148 -52.468888 -59.140129 0.000018 -10.882102 -0.000019 10.044901 -18.504697 86.461725 -5.631838 -12.014754 -21.413731 0.096101 1.057925 -10.381340 0.088571 -1.015958 9.965368 -0.000001 -0.000000 0.000000 -1.184895 3.317062 10.820551 10.126213 -4.458102 7.651886 1.077485 -7.608442 23.794146 0.000001 0.000002 0.000002 1.737425 3.173504 14.052642 -59.484391 62.898734 60.185926 0.000001 9.894198 -0.000004 22.436615 6.618574 -82.682425 -0.201458 3.035649 -7.196447 8.074872 6.487022 -14.042696 5.826164 15.094081 -37.811449 -0.000000 0.000001 0.000002 -3.832607 7.761188 22.844328 0.000001 0.000003 -0.000001 0.115885 -1.033544 12.794722 0.000000 -0.000000 -0.000000 10.553743 11.714666 1.886267 -2.535976 7.840886 2.084923 -40.650233 5.664243 -9.160383 -30.595501 1.256858 -9.478208 -0.000000 0.000001 0.000000 3.771534 -7.734510 -2.687157 9.707316 -0.214173 -1.515293 -37.746047 -5.837812 9.854302 -41.985067 -1.870270 8.328173 -0.000000 0.000000 -0.000000 
-0.266975 35.421150 -0.738861 72.676437 -1.787819 -1.139170 0.725780 -0.172940 0.361633 1.938334 -0.319607 0.637825 1.937983 -0.327127 0.635335 -9.473962 -0.680779 3.119156 -0.030299 2.338938 -4.260370 -0.000000 0.000000 0.000000 1.104786 -1.127721 0.184454 -51.135144 -52.451946 -58.828112 0.000010 -11.175464 -0.000001 10.085552 -18.375316 86.393731 -5.631836 -12.014752 -21.413727 0.096103 1.057925 -10.381340 0.088571 -1.015958 9.965369 0.000001 0.000001 -0.000001 -1.184896 3.317063 10.820551 10.126212 -4.458103 7.651884 1.077485 -7.608439 23.794152 -0.000001 0.000000 0.000003 1.730066 3.180696 14.080588 -58.507155 62.758503 59.310221 0.000001 10.714248 0.000003 22.286043 6.225447 -82.571045 -0.201457 3.035649 -7.196448 8.074871 6.487021 -14.042697 5.826164 15.094081 -37.811453 -0.000000 0.000001 0.000000 -3.832606 7.761186 22.844329 0.000001 0.000003 -0.000002 0.115834 -1.033303 12.791675 0.000000 -0.000001 -0.000002 10.398140 11.747123 1.998809 -2.276232 7.488333 2.067879 -40.653689 5.658483 -9.154364 -30.727324 1.274112 -9.557162 0.000000 0.000000 0.000000 3.862087 -7.726419 -2.627472 9.581328 -0.458050 -1.520375 -37.737174 -5.850877 9.866768 -41.741629 -1.886614 8.517543 -0.000000 -0.000000 -0.000000 
-0.284847 35.423016 -0.724991 72.703088 -1.754997 -1.132561 0.725074 -0.173766 0.353663 1.939967 -0.329640 0.634309 1.939598 -0.337128 0.631741 -9.522412 -0.670254 3.066455 -0.198044 2.301230 -4.327531 -0.000002 -0.000000 -0.000000 1.106265 -1.152378 0.154895 -50.892043 -52.305169 -58.591022 0.000009 -11.534918 -0.000012 10.146354 -18.226722 86.352183 -5.631841 -12.014752 -21.413729 0.096101 1.057925 -10.381338 0.088574 -1.015958 9.965367 -0.000003 0.000001 -0.000001 -1.184898 3.317063 10.820552 10.126211 -4.458104 7.651885 1.077484 -7.608441 23.794146 -0.000000 0.000000 0.000002 1.739186 3.177954 14.073941 -58.073519 62.650156 58.921016 -0.000000 11.201042 0.000015 22.250506 5.986926 -82.508473 -0.201458 3.035648 -7.196449 8.074872 6.487021 -14.042698 5.826165 15.094083 -37.811449 0.000000 0.000000 0.000002 -3.832605 7.761187 22.844328 0.000001 0.000003 0.000002 0.115776 -1.033059 12.788793 -0.000000 -0.000001 -0.000001 10.282176 11.759491 2.047208 -2.125184 7.350269 2.066383 -40.645769 5.654781 -9.146010 -30.809897 1.280409 -9.583447 -0.000000 0.000000 -0.000000 3.895117 -7.720845 -2.592930 9.498235 -0.603970 -1.520486 -37.703819 -5.861703 9.887427 -41.634200 -1.895170 8.611339 -0.000001 0.000000 -0.000000 
-0.289516 35.429104 -0.715843 72.712329 -1.763339 -1.136591 0.724945 -0.174997 0.351749 1.943205 -0.338134 0.648122 1.942861 -0.345708 0.645481 -9.504261 -0.636003 3.012637 -0.243147 2.377747 -4.486280 -0.000000 -0.000000 -0.000000 1.104417 -1.150473 0.187819 -50.752086 -52.270922 -58.494273 -0.000004 -11.649581 0.000004 10.082333 -18.185739 86.376642 -5.631838 -12.014755 -21.413731 0.096101 1.057925 -10.381342 0.088571 -1.015958 9.965367 0.000001 -0.000000 -0.000000 -1.184897 3.317060 10.820550 10.126213 -4.458102 7.651882 1.077484 -7.608440 23.794146 -0.000001 0.000000 0.000001 1.739826 3.216142 14.048017 -58.016405 62.644992 58.864244 0.000006 11.244961 0.000003 22.237979 5.963240 -82.514621 -0.201458 3.035649 -7.196449 8.074871 6.487021 -14.042697 5.826163 15.094079 -37.811449 -0.000000 0.000001 0.000003 -3.832606 7.761187 22.844329 0.000001 0.000004 -0.000001 0.115731 -1.032839 12.786050 -0.000001 -0.000001 0.000005 10.282960 11.759772 2.034263 -2.142791 7.454114 2.075401 -40.620942 5.664746 -9.165430 -30.808931 1.279312 -9.573757 -0.000000 -0.000000 0.000001 3.848931 -7.718086 -2.598332 9.550187 -0.555757 -1.515705 -37.673285 -5.857305 9.888147 -41.723737 -1.901872 8.576941 0.000001 0.000000 -0.000000 
